{"accessors" : [{"bufferView" : 0, "byteOffset" : 0, "componentType" : 5123, "count" : 144, "type" : "SCALAR", "max" : [139], "min" : [0]}, {"bufferView" : 1, "byteOffset" : 0, "componentType" : 5126, "count" : 140, "type" : "VEC3", "max" : [0.4000000059604645, 0.20000000298023224, 0.34599998593330383], "min" : [-0.4000000059604645, 0, -0.34599998593330383], "name" : "POSITION"}, {"bufferView" : 1, "byteOffset" : 12, "componentType" : 5126, "count" : 140, "type" : "VEC2", "max" : [15.748029708862305, 13.622050285339355], "min" : [-15.748029708862305, -13.622050285339355], "name" : "TEXCOORD_0"}, {"bufferView" : 1, "byteOffset" : 20, "componentType" : 5126, "count" : 140, "type" : "VEC3", "max" : [1.0000044107437134, 1.0000044107437134, 0.9094572067260742], "min" : [-1.0000044107437134, -1.0000044107437134, -0.9094572067260742], "name" : "NORMAL"}], "asset" : {"generator" : "Aspose.3D 23.2", "version" : "2.0"}, "buffers" : [{"uri" : "data:application/octet-stream;base64,", "byteLength" : 4904}], "bufferViews" : [{"buffer" : 0, "byteOffset" : 0, "byteLength" : 288, "target" : 34963}, {"buffer" : 0, "byteOffset" : 292, "byteLength" : 4608, "byteStride" : 32, "target" : 34962}], "materials" : [{"name" : "striping", "pbrMetallicRoughness" : {"baseColorFactor" : [0.9607843, 0.7254902, 0.2588235, 1], "metallicFactor" : 0, "roughnessFactor" : 0}, "emissiveFactor" : [0, 0, 0], "alphaMode" : "OPAQUE", "doubleSided" : false}], "meshes" : [{"primitives" : [{"attributes" : {"POSITION" : 1, "TEXCOORD_0" : 2, "NORMAL" : 3}, "indices" : 0, "material" : 0, "mode" : 4}], "name" : ""}], "nodes" : [{"mesh" : 0, "name" : "arrow"}], "scene" : 0, "scenes" : [{"nodes" : [0]}]}