{"accessors" : [{"bufferView" : 0, "byteOffset" : 0, "componentType" : 5123, "count" : 132, "type" : "SCALAR", "max" : [128], "min" : [0]}, {"bufferView" : 1, "byteOffset" : 0, "componentType" : 5126, "count" : 129, "type" : "VEC3", "max" : [0.5, 0.5, 0.5], "min" : [-0.5, 0, -0.5], "name" : "POSITION"}, {"bufferView" : 1, "byteOffset" : 12, "componentType" : 5126, "count" : 129, "type" : "VEC2", "max" : [19.685039520263672, 19.685039520263672], "min" : [-19.685039520263672, -19.685039520263672], "name" : "TEXCOORD_0"}, {"bufferView" : 1, "byteOffset" : 20, "componentType" : 5126, "count" : 129, "type" : "VEC3", "max" : [1.0000044107437134, 1.0000044107437134, 1.0000044107437134], "min" : [-1.0000044107437134, -1.0000044107437134, -1.0000044107437134], "name" : "NORMAL"}, {"bufferView" : 0, "byteOffset" : 264, "componentType" : 5123, "count" : 36, "type" : "SCALAR", "max" : [34], "min" : [0]}, {"bufferView" : 2, "byteOffset" : 0, "componentType" : 5126, "count" : 35, "type" : "VEC3", "max" : [0.5, 0.5, 0.0625], "min" : [-0.5, 0.25, -0.0625], "name" : "POSITION"}, {"bufferView" : 2, "byteOffset" : 12, "componentType" : 5126, "count" : 35, "type" : "VEC2", "max" : [19.685039520263672, 2.460629940032959], "min" : [-19.685039520263672, -19.685039520263672], "name" : "TEXCOORD_0"}, {"bufferView" : 2, "byteOffset" : 20, "componentType" : 5126, "count" : 35, "type" : "VEC3", "max" : [1.0000044107437134, 1.0000044107437134, 0], "min" : [-1.0000044107437134, -1.0000044107437134, 0], "name" : "NORMAL"}], "asset" : {"generator" : "Aspose.3D 23.2", "version" : "2.0"}, "buffers" : [{"uri" : "data:application/octet-stream;base64,", "byteLength" : 5724}], "bufferViews" : [{"buffer" : 0, "byteOffset" : 0, "byteLength" : 336, "target" : 34963}, {"buffer" : 0, "byteOffset" : 340, "byteLength" : 4224, "byteStride" : 32, "target" : 34962}, {"buffer" : 0, "byteOffset" : 4568, "byteLength" : 1152, "byteStride" : 32, "target" : 34962}], "materials" : [{"name" : "cardboard", "pbrMetallicRoughness" : {"baseColorFactor" : [0.854902, 0.572549, 0.4235294, 1], "metallicFactor" : 0, "roughnessFactor" : 0}, "emissiveFactor" : [0, 0, 0], "alphaMode" : "OPAQUE", "doubleSided" : false}, {"name" : "tape", "pbrMetallicRoughness" : {"baseColorFactor" : [0.9960784, 0.8431372, 0.7568628, 1], "metallicFactor" : 0, "roughnessFactor" : 0}, "emissiveFactor" : [0, 0, 0], "alphaMode" : "OPAQUE", "doubleSided" : false}], "meshes" : [{"primitives" : [{"attributes" : {"POSITION" : 1, "TEXCOORD_0" : 2, "NORMAL" : 3}, "indices" : 0, "material" : 0, "mode" : 4}, {"attributes" : {"POSITION" : 5, "TEXCOORD_0" : 6, "NORMAL" : 7}, "indices" : 4, "material" : 1, "mode" : 4}], "name" : ""}], "nodes" : [{"mesh" : 0, "name" : "box-large"}], "scene" : 0, "scenes" : [{"nodes" : [0]}]}